<?xml version="1.0" standalone="no"?>
<!DOCTYPE svg PUBLIC "-//W3C//DTD SVG 1.1//EN" "http://www.w3.org/Graphics/SVG/1.1/DTD/svg11.dtd" >
<svg xmlns="http://www.w3.org/2000/svg">
<metadata>Generated by IcoMoon</metadata>
<defs>
<font id="icons" horiz-adv-x="1024">
<font-face units-per-em="1024" ascent="1024" descent="0" />
<missing-glyph horiz-adv-x="1024" />
<glyph unicode="&#x20;" horiz-adv-x="512" d="" />
<glyph unicode="&#x2b;" glyph-name="add" d="M810.667 469.333h-256v-256h-85.333v256h-256v85.333h256v256h85.333v-256h256v-85.333z" />
<glyph unicode="&#x2d;" glyph-name="remove" d="M810.667 469.333h-597.333v85.333h597.333v-85.333z" />
<glyph unicode="&#x3c;" glyph-name="left" d="M657.707 327.040l-195.627 195.627 195.627 195.627-60.373 60.373-256-256 256-256z" />
<glyph unicode="&#x3e;" glyph-name="right" d="M366.293 321.707l195.627 195.627-195.627 195.627 60.373 60.373 256-256-256-256z" />
<glyph unicode="&#x4a;" glyph-name="googleplus" d="M379.422 527.784v-79.547h131.666c-5.262-34.17-39.796-100.071-131.553-100.071-79.091 0-143.694 65.605-143.694 146.496 0 80.845 64.444 146.45 143.603 146.45 45.104 0 75.287-19.226 92.485-35.787l62.963 60.571c-40.388 37.814-92.827 60.594-155.357 60.594-128.386 0.068-232.011-103.807-232.011-231.829s103.693-231.897 231.897-231.897c133.944 0 222.694 94.103 222.694 226.612 0 15.217-1.64 26.88-3.645 38.429h-219.049zM876.475 527.784h-66.312v66.312h-66.312v-66.312h-66.266v-66.243h66.334v-66.334h66.494v66.334h66.061z" />
<glyph unicode="&#x4c;" glyph-name="hamburger2" d="M85.333 362.667v-85.333h853.333v85.333h-853.333zM85.333 576v-85.333h853.333v85.333h-853.333zM85.333 789.333v-85.333h853.333v85.333h-853.333z" />
<glyph unicode="&#x51;" glyph-name="pinterest2" d="M524.8 785.11c-149.076 0-224.256-106.88-224.256-196.012 0-53.972 20.438-102.016 64.256-119.892 7.168-2.944 13.61-0.128 15.702 7.85 1.452 5.504 4.906 19.414 6.4 25.216 2.092 7.85 1.28 10.624-4.48 17.452-12.672 14.932-20.736 34.218-20.736 61.524 0 79.274 59.348 150.272 154.496 150.272 84.224 0 130.56-51.456 130.56-120.234 0-90.454-40.064-166.826-99.5-166.826-32.812 0-57.344 27.136-49.492 60.46 9.428 39.764 27.69 82.644 27.69 111.318 0 25.684-13.782 47.104-42.324 47.104-33.536 0-60.46-34.688-60.46-81.196 0-29.61 10.026-49.664 10.026-49.664s-34.346-145.494-40.362-171.008c-11.988-50.688-1.792-112.938-0.94-119.254 0.512-3.712 5.29-4.566 7.466-1.75 3.072 3.968 43.050 53.332 56.662 102.656 3.84 13.952 22.060 86.23 22.060 86.23 10.924-20.736 42.752-39.082 76.672-39.082 100.908 0 169.26 91.948 169.26 215.040-0.086 93.14-78.932 179.798-198.698 179.798z" />
<glyph unicode="&#x54;" glyph-name="twiter2" d="M803.018 690.184c-21.224-9.335-43.887-15.684-67.756-18.58 24.318 14.659 43.024 37.754 51.873 65.309-22.807-13.31-48.078-23.005-74.986-28.401-21.494 23.005-52.107 37.394-86.12 37.394-65.165 0-117.992-52.827-117.992-117.92 0-9.353 1.079-18.346 3.040-26.962-98.081 4.623-185.028 51.729-243.197 122.938-10.234-17.321-15.972-37.43-15.972-59.356 0-41.009 20.864-77.055 52.467-98.225-19.354 0.629-37.556 5.954-53.438 14.767v-1.457c0-57.197 40.596-104.898 94.627-115.762-9.911-2.662-20.361-4.101-31.081-4.101-7.536 0-14.749 0.719-21.962 2.068 15.127-46.837 58.636-80.994 110.42-81.947-40.29-31.638-91.354-50.488-146.339-50.488-9.353 0-18.688 0.557-28.059 1.601 52.503-33.437 114.341-52.971 181.233-52.971 217.134 0 335.72 179.776 335.72 335.414 0 5.018 0 10.073-0.36 15.109 23.041 16.53 43.168 37.412 58.996 61.1l-1.133 0.486z" />
<glyph unicode="&#x58;" glyph-name="clear" d="M810.667 750.293l-60.373 60.373-238.293-238.293-238.293 238.293-60.373-60.373 238.293-238.293-238.293-238.293 60.373-60.373 238.293 238.293 238.293-238.293 60.373 60.373-238.293 238.293z" />
<glyph unicode="&#x71;" glyph-name="search" horiz-adv-x="837" d="M805.561 233.472q30.72-34.816 6.144-63.488l-47.104-47.104q-36.864-32.768-69.632 0l-194.56 194.56q-74.752-43.008-159.744-43.008-131.072 0-228.352 97.28t-97.28 228.352 92.16 224.256 223.232 93.184q130.048 0 229.376-97.28 98.304-97.28 98.304-228.352 0-91.136-47.104-165.888zM111.287 600.064q0-90.112 69.632-159.744t159.744-69.632 154.624 64.512 64.512 156.672q0 89.088-69.632 158.72-68.608 68.608-159.744 68.608-90.112 0-154.624-64.512t-64.512-154.624z" />
<glyph unicode="&#x2227;" glyph-name="up" d="M316.373 366.293l195.627 195.627 195.627-195.627 60.373 60.373-256 256-256-256z" />
<glyph unicode="&#x2228;" glyph-name="down" d="M316.373 673.707l195.627-195.627 195.627 195.627 60.373-60.373-256-256-256 256z" />
<glyph unicode="&#xe600;" glyph-name="uniE600" d="M673.62 488.106l-239.146-239.914c-6.868-6.87-15.020-10.326-24.192-10.326-9.344 0-17.322 3.456-24.236 10.326l-35.628 36.438c-6.954 6.826-10.368 14.764-10.368 23.68s3.414 16.812 10.368 23.722l181.076 178.22-181.12 181.802c-6.954 6.572-10.368 14.592-10.368 23.808 0 9.302 3.414 17.322 10.368 24.236l35.628 35.668c6.912 6.87 14.932 10.324 24.236 10.324 9.216 0 17.322-3.456 24.192-10.324l239.146-240.256c6.87-6.656 10.368-14.508 10.368-23.552s-3.456-16.896-10.326-23.85z" />
<glyph unicode="&#xe601;" glyph-name="uniE601" d="M429.012 654.422v0.042h-55.638v-284.928h55.638zM26.284 654.464v-284.928h55.594v284.928zM282.836 654.464l-182.656-284.928h62.164l183.082 284.928zM546.346 474.284v43.86l-14.422-28.5h-9.942l-14.42 28.5v-43.86h-14.678v75.222h14.464l19.668-40.66 19.542 40.662h14.422v-75.22zM613.12 532.992c-2.092 2.432-5.376 4.012-9.388 4.012s-7.38-1.58-9.514-4.012c-2.816-3.156-3.584-6.656-3.584-21.12s0.768-17.962 3.584-21.12c2.134-2.432 5.504-4.010 9.514-4.010s7.296 1.578 9.386 4.010c2.86 3.158 3.712 6.656 3.712 21.12s-0.812 17.964-3.712 21.12zM624 481.876c-5.292-5.248-11.648-8.236-20.268-8.236-8.534 0-15.104 2.986-20.394 8.236-7.636 7.636-7.424 17.024-7.424 29.996 0 13.012-0.212 22.4 7.424 29.996 5.292 5.29 11.818 8.236 20.394 8.236s14.976-2.944 20.268-8.236c7.636-7.596 7.552-16.98 7.552-29.996 0-12.972 0.086-22.356-7.552-29.996zM674.986 536.362h-13.824v-19.84h13.824c6.486 0 10.668 4.14 10.668 9.9s-4.14 9.94-10.668 9.94zM686.422 474.284l-14.678 29.996h-10.582v-29.996h-14.678v75.222h29.482c15.274 0 24.32-10.452 24.32-23.040 0-10.582-6.4-17.066-13.654-19.756l16.812-32.428h-17.024zM740.822 527.318l-9.558-27.392h18.688l-9.13 27.392zM758.356 474.284l-4.48 13.312h-26.708l-4.48-13.312h-15.318l27.35 75.222h11.562l27.476-75.222h-15.404zM806.572 474.284h-10.924l-24.832 75.222h15.188l15.062-49.024 15.104 49.024h15.318zM840.576 549.504h14.72v-75.222h-14.72v75.222zM898.048 527.318l-9.514-27.392h18.688l-9.174 27.392zM915.542 474.284l-4.438 13.312h-26.708l-4.524-13.312h-15.274l27.308 75.222h11.562l27.476-75.222h-15.404zM984.576 474.284l-29.74 46.166v-46.166h-14.678v75.222h13.1l29.74-46.080v46.080h14.72v-75.222zM492.884 444.672v-75.136h48.768v13.056h-34.092v62.080zM553.6 444.672h14.72v-75.136h-14.72v75.136zM615.808 401.11h-15.318v-18.476h15.318c6.656 0 9.812 4.224 9.812 9.26 0 5.12-3.158 9.216-9.812 9.216zM614.87 431.616h-14.422v-17.322h14.422c6.23 0 9.728 3.5 9.728 8.66 0 5.206-3.5 8.66-9.728 8.66zM617.26 369.536h-31.446v75.136h30.164c14.678 0 23.212-8.15 23.212-21.076 0-8.32-5.462-13.696-9.302-15.488 4.566-2.134 10.368-6.87 10.368-16.896 0.044-14.038-9.6-21.674-22.996-21.674zM683.732 431.616h-13.824v-19.84h13.824c6.442 0 10.708 4.14 10.708 9.9s-4.224 9.942-10.708 9.942zM695.212 369.536l-14.72 29.996h-10.582v-29.996h-14.634v75.136h29.398c15.318 0 24.404-10.368 24.404-22.956 0-10.582-6.4-17.11-13.696-19.798l16.812-32.384h-16.98zM749.568 422.528l9.216-27.35h-18.73l9.514 27.35zM743.466 444.672l-27.392-75.136h15.318l4.524 13.312h26.708l4.438-13.312h15.274l-27.476 75.136h-11.392zM820.224 431.616h-13.824v-19.84h13.824c6.442 0 10.668 4.14 10.668 9.9s-4.224 9.942-10.668 9.942zM831.616 369.536l-14.678 29.996h-10.582v-29.996h-14.678v75.136h29.44c15.274 0 24.362-10.368 24.362-22.956 0-10.582-6.442-17.11-13.696-19.798l16.812-32.384h-16.98zM896.128 444.672l-13.824-30.25-14.038 30.25h-15.914l22.572-44.332v-30.804h14.592v30.804l22.572 44.332z" />
<glyph unicode="&#xe602;" glyph-name="uniE602" d="M436.992 570.666h7.382v-22.188h7.808l13.27 22.188h8.106l-15.232-24.96v-0.128l16.214-27.52h-8.32l-14.036 24.192h-7.808v-24.192h-7.382v52.608zM483.414 570.666h7.38v-46.25h23.596v-6.4h-30.976v52.652zM544.938 571.562c15.188 0 27.052-11.69 27.052-26.836 0-15.532-11.818-27.606-27.052-27.606-15.188 0-27.092 12.074-27.092 27.606 0.044 15.104 11.948 26.836 27.092 26.836zM544.938 523.86c10.752 0 19.37 8.916 19.37 20.822 0 11.52-8.62 20.14-19.37 20.14s-19.456-8.62-19.456-20.14c0.044-11.86 8.746-20.822 19.456-20.822zM582.656 570.666h7.34v-22.188h7.894l13.312 22.188h8.064l-15.232-24.96v-0.128l16.212-27.52h-8.32l-14.038 24.192h-7.894v-24.192h-7.34v52.608zM655.188 533.164h-19.798l-5.206-15.146h-7.68l18.944 52.652h7.808l18.944-52.652h-7.636l-5.376 15.146zM645.332 563.414c0 0-1.152-4.736-2.134-7.466l-5.888-16.726h15.956l-5.846 16.726c-0.896 2.73-2.004 7.466-2.004 7.466h-0.086zM676.010 570.666h7.34l23.296-34.262c2.048-2.816 4.438-7.596 4.438-7.596h0.212c0 0-0.596 4.692-0.596 7.596v34.262h7.424v-52.652h-7.212l-23.552 34.132c-1.876 2.902-4.308 7.68-4.308 7.68h-0.212c0 0 0.512-4.692 0.512-7.68v-34.132h-7.34v52.652zM448.17 489.684h-17.964v6.4h43.476v-6.4h-18.048v-46.25h-7.424v46.25zM481.108 496.044h30.634v-6.4h-23.212v-16.47h18.858v-6.486h-18.858v-16.896h24.492v-6.356h-31.916v52.608zM546.688 496.98c12.63 0 19.2-6.956 19.2-6.956l-3.754-5.59c0 0-6.144 5.802-15.188 5.802-11.732 0-19.456-8.96-19.456-20.182s7.85-20.778 19.5-20.778c9.942 0 16.256 6.87 16.256 6.87l4.010-5.292c0 0-7.296-8.362-20.438-8.362-15.788 0-26.88 12.076-26.88 27.52 0 15.318 11.434 26.966 26.752 26.966zM577.28 496.044h7.424v-23.126h27.35v23.126h7.38v-52.65h-7.38v23.126h-27.35v-23.126h-7.424v52.65zM633.684 496.044h7.296l23.51-34.176c1.876-2.816 4.438-7.722 4.438-7.722h0.086c0 0-0.512 4.778-0.512 7.722v34.176h7.34v-52.65h-7.254l-23.51 34.134c-1.92 2.944-4.352 7.764-4.352 7.764h-0.212c0 0 0.512-4.736 0.512-7.764v-34.134h-7.34v52.65zM713.6 496.98c15.232 0 27.008-11.692 27.008-26.924 0-15.488-11.732-27.562-27.008-27.562-15.148 0-27.052 12.076-27.052 27.562 0 15.232 11.86 26.924 27.052 26.924zM713.6 449.28c10.752 0 19.5 8.96 19.5 20.778 0 11.562-8.746 20.182-19.5 20.182-10.668 0-19.414-8.62-19.414-20.182 0-11.818 8.746-20.778 19.414-20.778zM751.232 496.044h7.424v-46.25h23.636v-6.356h-31.062v52.608zM812.972 496.98c15.148 0 27.008-11.692 27.008-26.924 0-15.488-11.818-27.562-27.008-27.562-15.274 0-27.136 12.076-27.136 27.562 0 15.232 11.818 26.924 27.136 26.924zM812.972 449.28c10.752 0 19.37 8.96 19.37 20.778 0 11.562-8.62 20.182-19.37 20.182s-19.5-8.62-19.5-20.182c0-11.818 8.746-20.778 19.5-20.778zM874.028 496.98c12.544 0 19.072-6.4 19.072-6.4l-3.712-5.504c0 0-5.846 5.164-14.89 5.164-12.374 0-19.798-9.004-19.798-20.268 0-12.246 8.32-20.692 19.37-20.692 9.174 0 14.89 6.528 14.89 6.528v7.636h-8.534v6.356h15.274v-26.412h-6.442v3.244c0 1.11 0 2.22 0 2.22h-0.086c0 0-5.76-6.356-16.172-6.356-14.164 0-25.942 11.222-25.942 27.35 0.044 15.188 11.606 27.136 26.966 27.136zM907.308 496.044h7.424v-52.65h-7.424v52.65zM929.068 496.044h30.548v-6.4h-23.296v-16.47h18.86v-6.486h-18.86v-16.896h24.49v-6.356h-31.744v52.608zM971.776 454.956c0 0 5.632-5.548 13.44-5.548 4.908 0 9.13 2.73 9.13 7.722 0 11.434-25.514 8.918-25.514 25.13 0 8.192 7.126 14.764 17.068 14.764 9.77 0 14.89-5.332 14.89-5.332l-3.328-6.144c0 0-4.908 4.566-11.562 4.566-5.632 0-9.558-3.5-9.558-7.722 0-10.924 25.428-8.020 25.428-25.044 0-8.106-6.23-14.89-16.682-14.89-11.264 0-17.494 6.912-17.494 6.912l4.182 5.59zM300.46 519.596c-0.17 0.256-0.81 0.128-0.81 0.128l-1.452-0.044c-17.878-1.068-33.536 1.706-33.536 1.706s2.73-4.692 3.84-11.776c0.556-3.542 0-6.74-0.214-12.16-0.17-5.206-0.17-12.884 2.476-17.876 2.604-4.908 8.362-7.296 13.696-10.668 13.356-8.534 34.988-18.134 49.706-24.746 8.916-4.096 14.806-7.764 13.226-11.434 0 0-2.56-9.77-34.346 9.428-1.664 0.938-7.552 4.14-9.514 4.692-8.064 2.476-16.98 5.12-26.538 8.020-40.96 11.99-6.228 33.452-36.522 47.702-30.378 14.294-37.932 12.5-42.838 24.534-4.908 12.074-10.324 5.376-17.836 1.792-7.552-3.54-76.588-36.522-156.074 9.344-2.26 1.28-2.304 3.116 1.492 1.878 15.532-5.076 51.284-21.844 90.71-14.080 65.492 12.928 50.816 51.116 113.11 63.914 40.576 8.32 76.332-33.706 100.308-27.818 7.466 1.834 9.13 3.84 11.308 5.334 4.822 3.328 3.712 5.334 3.37 7.252-0.512 2.774-10.796-4.14-15.956 13.996-3.628 13.056 10.836-2.516 16.768-6.87 6.228-4.566 11.69-4.95 11.69-4.95s8.064 2.092 12.844-1.322c12.672-9.046 20.394-7.296 21.632-14.848 1.28-7.596-27.562-12.8-36.524-10.368-5.248 1.452-10.368-8.916-21.036-17.92-4.822-4.096-8.916-8.064-17.92-10.24-0.512-0.084-1.706-0.384-2.432-0.94-0.81-0.64-1.238-1.58-1.408-1.964-2.944-10.112-7.296-22.87-11.222-26.24-6.656-5.802-14.080-4.096-14.080-4.096s-4.14 11.308 0.256 10.112c4.352-1.11 10.112-1.962 11.86 7.254 0.94 5.164 2.132 8.022 2.132 12.16 0-0.044 0 0.854-0.17 1.108z" />
<glyph unicode="&#xe603;" glyph-name="uniE603" d="M87.894 211.414v416.556c3.072-3.072 6.186-5.76 9.43-8.022 3.2-2.304 6.356-4.692 9.43-7.168 39.594-29.44 78.89-58.836 117.844-88.106 38.954-29.312 77.61-59.35 116.010-89.984 11.948-9.514 24.534-19.072 37.716-28.756 13.226-9.684 26.88-18.432 41.002-26.24 14.080-7.85 28.928-14.080 44.372-18.816 15.488-4.736 31.36-7.168 47.658-7.168 16.896 0 32.938 2.432 48.298 7.168 15.404 4.736 30.080 10.836 44.246 18.432 14.080 7.51 27.732 16.086 40.918 25.77s26.068 19.584 38.656 29.654c38.316 30.678 77.014 60.672 116.010 89.984s78.25 58.666 117.846 88.108c3.072 2.476 6.188 4.822 9.428 7.126 3.244 2.304 6.316 4.992 9.428 8.022v-416.556c0-14.422-5.076-26.836-15.404-37.248-10.24-10.41-22.572-15.658-36.992-15.658h-742.956c-14.464 0-26.88 5.248-37.29 15.658-10.454 10.41-15.66 22.826-15.66 37.248zM88.79 818.56c0 12.544 5.546 23.552 16.596 32.896s22.868 14.038 35.456 14.038h742.87c12.586 0 24.236-4.694 35.158-14.038s16.342-20.352 16.342-32.896c0-9.514-2.816-20.096-8.49-31.786s-12.586-23.168-20.65-34.518c-8.15-11.35-16.896-21.716-26.24-31.062-9.428-9.344-17.578-16.81-24.66-22.314-37.76-28.246-74.752-56.236-111.148-84.010-36.352-27.776-73.088-55.764-110.164-84.010-7.68-5.504-16.512-12.46-26.496-20.692-9.984-8.278-20.352-16.172-31.104-23.722-10.752-7.552-21.588-13.952-32.682-19.328-11.052-5.376-21.164-8.020-30.38-8.020h-1.792c-9.558 0-19.798 2.644-30.848 8.020s-21.888 11.776-32.468 19.328c-10.582 7.51-20.95 15.404-31.104 23.722-10.112 8.276-18.988 15.19-26.668 20.692-37.164 28.246-73.856 56.15-110.25 83.754-36.396 27.648-73.43 55.722-111.188 84.268-7.040 5.504-15.232 12.972-24.618 22.314-9.344 9.344-18.092 19.712-26.198 31.062s-15.062 22.868-20.736 34.516c-5.716 11.648-8.534 22.228-8.534 31.788z" />
<glyph unicode="&#xe604;" glyph-name="uniE604" d="M158.508 247.34v529.322c0 11.99 2.348 23.466 7.126 34.518 4.736 11.050 11.050 20.48 18.86 28.33 7.85 7.808 17.068 14.124 27.818 18.86 10.752 4.736 22.1 7.126 34.092 7.126h530.644c24.576 0 45.398-8.66 62.592-25.984 17.236-17.366 25.812-38.272 25.812-62.848v-529.322c0-12.586-2.432-24.236-7.168-34.986-4.736-10.668-11.008-20.010-18.816-27.818s-17.236-14.080-28.332-18.816c-11.008-4.736-22.4-7.168-34.092-7.168h-223.658v295.978h79.148c3.668 0 6.996 1.196 9.9 3.712 2.9 2.432 4.352 5.674 4.352 9.684l5.59 77.312c0 4.31-1.236 7.978-3.754 11.050-2.986 3.072-6.572 4.608-10.582 4.608h-84.65v34.048c0 12.544 1.578 20.95 4.822 25.088 3.158 4.14 11.434 6.23 24.576 6.23 7.68 0 16.172-0.64 25.6-1.836 9.344-1.236 18.346-2.944 26.924-5.076 1.836 0 3.924 0.214 6.23 0.682 2.26 0.47 4.096 1.28 5.248 2.518 3.072 1.836 5.248 5.204 6.486 10.112l10.582 74.58c1.152 8.876-2.644 14.25-11.52 16.086-27.648 7.68-56.49 11.348-86.572 11.050-92.372 0-138.582-44.972-138.582-134.868v-38.656h-47.36c-10.112 0-15.060-4.906-14.72-14.72v-77.312c0-3.668 1.322-6.996 4.14-9.9 2.73-2.9 6.272-4.394 10.582-4.394h47.36v-295.98h-180.736c-11.99 0-23.338 2.432-34.092 7.168s-20.010 11.008-27.818 18.816-14.122 17.152-18.86 27.818c-4.82 10.752-7.168 22.4-7.168 34.986z" />
<glyph unicode="&#xe605;" glyph-name="uniE605" d="M158.508 247.34v529.322c0 11.99 2.348 23.466 7.082 34.518 4.778 11.050 11.092 20.48 18.902 28.33 7.85 7.808 17.068 14.124 27.818 18.86 10.752 4.736 21.932 7.126 33.58 7.126h530.73c24.49 0 45.482-8.66 62.848-25.984 17.322-17.366 25.984-38.272 25.984-62.848v-529.322c0-12.586-2.432-24.236-7.168-34.986-4.736-10.668-11.008-20.010-18.816-27.818s-17.236-14.080-28.332-18.816-22.572-7.168-34.518-7.168h-530.688c-11.948 0-23.252 2.432-33.836 7.168s-19.754 11.008-27.562 18.816-14.122 17.152-18.902 27.818c-4.778 10.752-7.126 22.4-7.126 34.986zM251.008 415.828c24.532-34.092 54.996-59.99 91.35-77.824 36.394-17.75 76.16-26.668 119.466-26.668 29.44 0 57.772 4.096 84.95 12.16 27.092 8.15 51.668 19.414 73.686 33.836 21.932 14.422 40.918 31.658 57.088 51.84 16.086 20.096 27.818 42.068 35.158 66.004 25.174 1.836 44.928 10.582 59.436 26.24 4.268 4.308 4.822 9.344 1.836 15.19-2.518 5.504-7.082 7.808-13.824 6.912h-1.836c7.082 7.084 11.648 13.952 13.824 20.692 2.432 6.144 1.152 11.050-3.754 14.72-4.268 4.31-9.344 4.608-15.148 0.94-2.432-1.238-6.996-2.774-13.568-4.608s-13.568-2.774-20.908-2.774c-1.236 0-2.432 0.128-3.5 0.468-0.98 0.298-2.176 0.468-3.414 0.468 0 0.64-0.172 1.238-0.428 1.834-0.342 0.596-0.512 1.194-0.512 1.834-4.908 18.688-13.654 35.668-26.24 50.858s-27.008 26.326-43.264 33.366c1.236 1.238 2.176 2.476 2.73 3.67 0.596 1.194 1.578 2.432 2.73 3.668 1.836 4.908 1.836 9.984 0 15.19-0.596 1.836-2.518 4.308-5.76 7.38-3.158 3.072-8.49 4.31-15.828 3.668-0.682 1.194-1.578 2.432-2.816 3.668-3.668 3.668-7.51 5.076-11.52 4.14-7.68-1.238-15.148-3.2-22.572-5.972l-0.896 0.896c-4.268 2.476-9.004 2.134-14.25-0.896-18.092-11.35-33.068-26.668-45.056-46.038-11.99-19.328-22.4-40.020-31.318-62.166-10.752 9.514-19.5 15.83-26.198 18.858-18.688 10.752-38.528 20.48-59.392 29.226-20.95 8.832-44.586 18.262-70.954 28.416-4.31 1.194-7.978 0.596-11.050-1.878-3.072-1.834-5.418-5.034-6.912-9.644-0.596-8.276 0.682-17.28 3.926-26.924 3.2-9.686 9.132-19.244 17.706-28.756-7.68-1.836-10.71-6.742-9.216-14.72 3.668-20.864 14.122-36.352 31.318-46.464l-5.974-5.548c-4.352-4.308-4.906-9.388-1.834-15.188 1.194-3.668 5.248-9.428 12.16-17.28 6.912-7.808 16.94-13.696 30.166-17.706-1.834-3.668-2.73-7.082-2.73-10.068 0-3.072 0.298-5.248 0.896-6.486 1.834-10.068 7.85-17.75 17.92-22.996-11.348-7.68-23.466-12.928-36.352-15.658-12.928-2.73-25.9-3.584-39.126-2.518s-25.94 4.182-38.228 9.428-22.998 12.246-32.214 21.164c-2.476 2.518-5.462 3.668-8.96 3.668-3.584 0-6.528-1.152-9.002-3.668-7.040-5.548-7.594-11.562-1.792-17.962z" />
<glyph unicode="&#xe606;" glyph-name="uniE606" d="M158.508 717.27v59.392c0 11.988 2.348 23.466 7.082 34.516 4.778 11.052 11.092 20.48 18.902 28.332 7.85 7.808 17.068 14.122 27.818 18.858 10.752 4.736 22.4 7.126 34.986 7.126h529.322c24.49 0 45.482-8.66 62.848-25.984 17.322-17.366 25.984-38.272 25.984-62.848v-529.324c0-12.586-2.432-24.236-7.168-34.986-4.736-10.668-11.008-20.010-18.816-27.818s-17.236-14.080-28.332-18.816-22.572-7.168-34.518-7.168h-268.416c7.084 11.99 12.588 24.404 16.598 37.332 4.010 12.842 6.016 26.496 6.016 40.918 0 21.504-3.328 40.064-9.9 55.68-6.572 15.658-14.932 29.482-25.088 41.514-10.070 11.904-20.906 22.572-32.428 31.914-11.52 9.428-22.314 18.26-32.468 26.496s-18.516 16.512-25.088 24.66c-6.612 8.064-9.856 17.236-9.856 27.35 0 15.062 5.164 27.562 15.616 37.504 10.412 9.984 22.1 21.12 34.944 33.408 12.928 12.288 24.49 27.52 34.73 45.782 10.284 18.262 15.404 43.348 15.404 75.264 0 23.936-5.974 48-17.92 72.236-11.988 24.234-28.246 42.964-48.81 56.148h60.288l61.226 34.988h-196.908c-39.596 0-76.032-5.504-109.312-16.596-33.324-11.094-62.208-33.024-86.74-65.878zM158.508 315.904v201.6c16.854-20.864 35.328-35.668 55.424-44.458 20.14-8.746 43.648-13.1 70.656-13.1 5.504 0 11.094 0 16.596 0s10.752 0.596 15.658 1.836c-2.516-7.082-4.608-13.482-6.442-19.328-1.878-5.846-2.774-12.246-2.774-19.328 0-12.586 2.774-24.49 8.32-35.668 5.504-11.178 12.074-21.588 19.754-31.104-31.916-1.236-62.336-4.65-91.348-10.326s-57.644-15.702-85.844-30.124zM159.444 236.756c4.266 17.494 12.716 32.256 25.3 44.16 12.586 11.99 27.392 21.418 44.416 28.332s34.644 11.99 52.95 15.148c18.262 3.244 35.156 4.822 50.816 4.822 4.906 0 9.772 0 14.508 0s9.6-0.256 14.508-0.896c11.348-8.236 23.338-16.682 35.926-25.088s24.064-17.836 34.516-28.246c10.412-10.496 18.902-22.016 25.558-34.602s9.856-26.668 9.856-42.326c0-14.422-2.902-27.562-8.748-39.596h-211.712c-22.144 0-41.514 7.51-58.24 22.572-16.724 15.062-26.624 33.62-29.652 55.722zM205.44 662.058c0 13.184 1.748 26.24 5.29 39.126s8.876 24.15 16.128 33.836c7.212 9.684 16.342 17.492 27.392 23.466 11.050 6.016 24.064 8.96 39.126 8.96 20.822 0 38.954-6.272 54.314-18.858 15.318-12.586 27.82-28.032 37.504-46.294s16.81-37.888 21.632-58.88c4.736-21.036 7.126-39.98 7.126-56.832 0-13.824-1.366-26.668-4.18-38.656-2.73-11.948-7.424-22.486-13.996-31.532-6.572-9.044-15.232-16.256-25.984-21.632s-23.68-8.064-38.656-8.064c-20.266 0-38.1 6.016-53.418 17.962-15.318 11.948-28.372 26.668-39.082 44.16-10.752 17.492-18.986 36.438-24.662 56.876-5.718 20.352-8.532 39.168-8.532 56.362zM551.596 642.26h102.656v-103.124h50.176v103.124h102.572v49.708h-102.572v103.552h-50.176v-103.552h-102.656v-49.708z" />
<glyph unicode="&#xe607;" glyph-name="uniE607" d="M158.508 247.34v529.322c0 11.99 2.348 23.466 7.082 34.518 4.778 11.050 11.092 20.48 18.902 28.33 7.85 7.808 17.068 14.124 27.818 18.86 10.752 4.736 22.4 7.126 34.986 7.126h529.322c24.49 0 45.482-8.66 62.848-25.984 17.322-17.366 25.984-38.272 25.984-62.848v-529.322c0-12.586-2.432-24.236-7.168-34.986-4.736-10.668-11.008-20.010-18.816-27.818s-17.236-14.080-28.332-18.816-22.572-7.168-34.518-7.168h-381.524c8.236 11.99 17.366 26.668 27.348 43.99s17.58 35.328 22.826 54.1l4.564 18.816c1.834 7.68 4.48 18.092 8.022 31.318 3.54 13.184 8.022 30.336 13.568 51.5 6.144-12.586 17.706-23.424 34.73-32.428 17.024-9.088 35.67-13.568 55.936-13.568 29.398 0 56.404 6.4 80.98 19.328s45.568 30.592 63.104 53.164c17.494 22.486 31.104 49.408 40.918 80.554s14.764 64.938 14.764 101.462c0 27.606-5.674 54.144-16.98 79.616-11.434 25.472-27.264 48.086-47.658 67.884s-45.1 35.5-74.068 47.146c-29.1 11.648-61.014 17.492-96 17.492-43.904 0-82.432-7.126-115.54-21.418s-60.8-32.64-83.028-55.212c-22.272-22.528-38.868-47.446-49.964-74.752-11.008-27.308-16.556-54.144-16.556-80.556 0-31.916 6.144-60.8 18.39-86.742 12.288-25.9 31.318-44.16 57.088-54.572 4.352-1.836 8.236-2.004 11.734-0.428 3.5 1.494 5.93 4.736 7.168 9.684 1.152 3.072 2.432 7.936 3.668 14.506 1.194 6.572 2.432 11.818 3.668 15.828 2.476 7.082 0.64 13.654-5.504 19.84-7.084 8.876-12.758 19.244-17.024 31.062-4.31 11.818-6.442 25.812-6.442 42.112 0 23.296 4.266 45.654 12.672 66.988 8.404 21.332 20.564 40.192 36.352 56.62 15.83 16.428 34.816 29.44 57.088 39.126s47.488 14.508 75.734 14.508c25.13 0 47.318-3.584 66.476-10.796s35.414-17.108 48.596-29.696c13.184-12.586 23.082-27.476 29.654-44.63 6.572-17.194 9.9-36.224 9.9-57.088 0-26.412-2.816-51.54-8.49-75.478s-13.654-44.8-23.936-62.548c-10.326-17.836-22.74-32.086-37.332-42.836s-30.592-16.086-48.086-16.086c-9.514 0-18.346 1.92-26.496 5.76-8.106 3.84-15.060 9.004-20.692 15.658-5.716 6.572-9.644 14.080-11.734 22.486s-2.004 17.664 0.428 27.732c5.548 23.98 12.416 47.658 20.736 71.126 8.236 23.466 12.416 43.648 12.416 60.544 0 15.020-4.096 28.074-12.202 39.126s-20.778 16.596-37.974 16.596c-20.266 0-37.248-9.044-50.858-27.178-13.654-18.092-20.438-41.13-20.438-69.034-0.682-7.084-0.342-13.952 0.896-20.692 1.194-13.184 4.564-26.068 10.070-38.656-10.71-43.35-19.072-77.996-25.046-104.064s-10.496-46.336-13.568-60.756c-3.668-16.852-6.4-29.184-8.236-36.822-4.906-21.504-7.084-43.35-6.442-65.578s1.536-40.236 2.774-54.1h-119.724c-24.576 0-45.484 8.66-62.848 25.984s-25.984 38.356-25.984 62.848z" />
<glyph unicode="&#xe608;" glyph-name="uniE608" d="M277.676 533.334h170.666v-42.666h-170.668v42.668zM575.658 533.334h170.668v-42.666h-170.668v42.668zM490.666 448.342h42.666v-170.668h-42.668v170.668zM490.666 746.326h42.666v-170.668h-42.668v170.668zM341.334 1024h-341.334v-341.334h128v213.334h213.332zM0 341.332l0.042-213.332-0.042-128h341.334v128h-213.29l-0.044 213.332zM1024 682.666v341.334h-341.334v-128h213.332v-213.332zM682.668 0h341.332v341.334h-128v-213.332h-213.332z" />
<glyph unicode="&#xe900;" glyph-name="table" d="M0 832v-704h1024v704h-1024zM384 384v128h256v-128h-256zM640 320v-128h-256v128h256zM640 704v-128h-256v128h256zM320 704v-128h-256v128h256zM64 512h256v-128h-256v128zM704 512h256v-128h-256v128zM704 576v128h256v-128h-256zM64 320h256v-128h-256v128zM704 192v128h256v-128h-256z" />
</font>
</defs>
</svg>
